PathFileType	4	(X/Y/Z)	/Users/itak/Documents/Research/Walk-IL/dataset/trc/00527_00183.trc
DataRate	CameraRate	NumFrames	NumMarkers	Units	OrigDataRate	OrigDataStartFrame	OrigNumFrames
100.000000	100.000000	4	53	mm	100.000000	238	477
Frame#	Time	RPSI			LPSI			L3			STRN			T10			C7			CLAV			RBAK			LBAK			LSHO			LUPA			LAEL			LAOL			LWTS			LWPS			LFRA			LIFD			LHPS			LHTS			RSHO			RUPA			RAEL			RAOL			RWTS			RWPS			RFRA			RIFD			RHTS			RHPS			RBHD			LFHD			RFHD			LBHD			LHIP			RHIP			RASI			LASI			LKNE			LTHI			LANK			LTIP			LTOE			LMT1			LMT5			LHEE			RKNE			RTHI			RANK			RTIP			RTOE			RMT1			RMT5			RHEE			
		X1	Y1	Z1	X2	Y2	Z2	X3	Y3	Z3	X4	Y4	Z4	X5	Y5	Z5	X6	Y6	Z6	X7	Y7	Z7	X8	Y8	Z8	X9	Y9	Z9	X10	Y10	Z10	X11	Y11	Z11	X12	Y12	Z12	X13	Y13	Z13	X14	Y14	Z14	X15	Y15	Z15	X16	Y16	Z16	X17	Y17	Z17	X18	Y18	Z18	X19	Y19	Z19	X20	Y20	Z20	X21	Y21	Z21	X22	Y22	Z22	X23	Y23	Z23	X24	Y24	Z24	X25	Y25	Z25	X26	Y26	Z26	X27	Y27	Z27	X28	Y28	Z28	X29	Y29	Z29	X30	Y30	Z30	X31	Y31	Z31	X32	Y32	Z32	X33	Y33	Z33	X34	Y34	Z34	X35	Y35	Z35	X36	Y36	Z36	X37	Y37	Z37	X38	Y38	Z38	X39	Y39	Z39	X40	Y40	Z40	X41	Y41	Z41	X42	Y42	Z42	X43	Y43	Z43	X44	Y44	Z44	X45	Y45	Z45	X46	Y46	Z46	X47	Y47	Z47	X48	Y48	Z48	X49	Y49	Z49	X50	Y50	Z50	X51	Y51	Z51	X52	Y52	Z52	X53	Y53	Z53	

239	2.38	-619.115478515625	937.7459106445312	-152.9989929199219	-549.5863037109375	929.3627319335938	-255.4829711914062	-584.1839599609375	1009.396423339844	-197.5464172363281	-391.1363830566406	1170.19775390625	-92.49421691894531	-597.3007202148438	1115.42724609375	-192.2353057861328	-560.93310546875	1344.919921875	-164.4391632080078	-421.8250122070312	1265.661743164062	-105.5455703735352	-638.6412353515625	1220.672241210938	-107.8844299316406	-549.341796875	1292.993408203125	-254.8405914306641	-433.2397766113281	1338.441162109375	-284.0379333496094	-423.4620666503906	1214.315185546875	-348.9125366210938	-408.2300415039062	1005.402648925781	-377.5214538574219	-501.40478515625	996.6673583984375	-343.4363708496094	-347.2523498535156	812.7568969726562	-316.996337890625	-404.8354797363281	781.5292358398438	-384.2611999511719	-394.4871826171875	919.7132568359375	-376.029296875	-354.7122497558594	655.3611450195312	-310.9201354980469	-386.8905029296875	726.2357177734375	-371.2159729003906	-335.1343688964844	734.362060546875	-333.4161987304688	-570.8672485351562	1338.044555664062	-6.309842586517334	-607.3800048828125	1269.267211914062	39.21028518676758	-602.15283203125	1001.824340820312	88.79407501220703	-638.1326293945312	981.4462890625	36.7353630065918	-477.7655639648438	812.2391357421875	100.9798202514648	-563.5464477539062	782.24853515625	115.7719192504883	-594.9837036132812	947.5888061523438	97.97551727294922	-463.453125	652.528564453125	111.2475433349609	-465.27880859375	720.3992919921875	132.8814697265625	-536.1914672851562	711.5623779296875	128.1809997558594	-557.9942626953125	1500.249633789062	-76.91692352294922	-387.3782043457031	1562.49365234375	-161.5485382080078	-439.9938049316406	1563.926879882812	-45.34311294555664	-505.7561950683594	1492.993041992188	-226.9166412353516	-382.0709533691406	863.8935546875	-296.250244140625	-607.0470581054688	842.9681396484375	8.703769683837891	-485.0293273925781	886.2564086914062	16.57033157348633	-353.5036010742188	903.7439575195312	-186.5339202880859	-254.9116973876953	482.5060424804688	-164.3733062744141	-290.6317749023438	625.8958129882812	-222.8124694824219	-217.2045288085938	49.07472610473633	-119.8939819335938	-231.6708984375	331.738037109375	-154.2196197509766	-76.65090942382812	97.32746887207031	12.29915523529053	-152.6734771728516	77.98046112060547	14.42408657073975	-118.1334609985352	67.34957122802734	-84.04685974121094	-282.6906433105469	41.98866271972656	-82.32657623291016	-627.1077880859375	463.0700073242188	-66.58428955078125	-593.6384887695312	712.0401611328125	15.33523559570312	-760.45166015625	61.67108154296875	-207.9012451171875	-646.4005737304688	321.1322021484375	-108.7886199951172	-571.057373046875	42.00859069824219	-139.4437561035156	-605.70849609375	48.88370132446289	-205.8807525634766	-674.0523681640625	46.7027473449707	-136.3036041259766	-780.2799682617188	64.51769256591797	-276.9472351074219	
240	2.39	-609.8311157226562	937.1710205078125	-149.8382263183594	-539.5556640625	929.0411376953125	-251.8415679931641	-574.9091796875	1008.683349609375	-193.9579467773438	-382.6983947753906	1169.718383789062	-88.50911712646484	-588.5104370117188	1114.6025390625	-188.7346496582031	-552.6334838867188	1344.158447265625	-161.0153503417969	-413.4762878417969	1265.136596679688	-101.7714157104492	-630.2750244140625	1219.840576171875	-104.5385589599609	-540.7736206054688	1292.109130859375	-251.3753814697266	-424.6615295410156	1337.67138671875	-280.3565979003906	-415.0324401855469	1213.535766601562	-345.2619934082031	-400.2095947265625	1004.671020507812	-373.9346008300781	-493.3020629882812	996.0196533203125	-339.5771484375	-339.4211120605469	811.7928466796875	-313.6266174316406	-397.1055297851562	780.8648071289062	-380.9624938964844	-386.5674133300781	918.9088134765625	-372.5755920410156	-347.2560729980469	654.3994140625	-307.8845825195312	-379.1983032226562	725.4763793945312	-368.0690612792969	-327.4788208007812	733.3759155273438	-330.23974609375	-562.8983154296875	1337.37646484375	-2.944785118103027	-599.4395141601562	1268.597290039062	42.54516220092773	-594.3760986328125	1001.107421875	91.88974761962891	-630.27490234375	980.832763671875	39.73700714111328	-470.3158874511719	811.2546997070312	103.8050384521484	-556.0943603515625	781.3995361328125	118.7002792358398	-587.28515625	946.8429565429688	101.0269317626953	-456.2781372070312	651.4755249023438	113.6700286865234	-457.9395141601562	719.2948608398438	135.4689331054688	-528.8805541992188	710.618408203125	130.9204406738281	-549.8056640625	1499.53466796875	-73.36968994140625	-379.2417297363281	1561.896118164062	-157.9607086181641	-431.8218078613281	1563.28125	-41.77508544921875	-497.5499877929688	1492.358764648438	-223.3742218017578	-372.0301513671875	863.5872192382812	-291.8901977539062	-598.77880859375	841.98681640625	11.63019561767578	-476.7901306152344	885.2285766601562	20.53784561157227	-344.1305847167969	903.1693725585938	-181.8918609619141	-247.1293182373047	481.6067504882812	-159.5430450439453	-281.9420471191406	625.2035522460938	-217.8259582519531	-214.8531494140625	48.0194206237793	-117.8305969238281	-225.2864227294922	330.2683715820312	-149.945556640625	-73.95401000976562	92.4598388671875	15.35878753662109	-150.2836151123047	74.16389465332031	17.12924385070801	-115.6654205322266	64.35531616210938	-81.36882019042969	-280.4686279296875	41.1536865234375	-80.35536193847656	-619.5319213867188	462.6853637695312	-64.26248931884766	-585.6806640625	711.1259155273438	18.00376892089844	-759.5066528320312	64.07597351074219	-207.9870300292969	-640.7109985351562	321.1330871582031	-106.9004898071289	-570.80419921875	41.95757675170898	-139.2546691894531	-605.2061157226562	49.2951774597168	-205.6681213378906	-673.6464233398438	47.31190872192383	-136.1829528808594	-779.112060546875	68.19102478027344	-277.0908813476562	
241	2.4	-600.2235107421875	936.7503051757812	-146.6487579345703	-529.26611328125	928.892822265625	-248.214111328125	-565.3558959960938	1008.077819824219	-190.3518981933594	-374.0575866699219	1169.375122070312	-84.50825500488281	-579.4927978515625	1113.85302734375	-185.2203521728516	-544.18701171875	1343.496337890625	-157.6100616455078	-404.9627075195312	1264.739868164062	-97.99794006347656	-621.7396240234375	1219.07666015625	-101.1915588378906	-532.0527954101562	1291.296752929688	-247.9271850585938	-415.9582824707031	1337.000244140625	-276.7166748046875	-406.4658508300781	1212.830688476562	-341.6177978515625	-392.0281982421875	1004.019775390625	-370.3301086425781	-485.048583984375	995.4591674804688	-335.7536010742188	-331.4622192382812	810.93212890625	-310.1824951171875	-389.19091796875	780.2761840820312	-377.6102294921875	-378.4783020019531	918.181640625	-369.0833740234375	-339.6544799804688	653.5416870117188	-304.7638549804688	-371.3278198242188	724.810791015625	-364.8895568847656	-319.6901245117188	732.5034790039062	-326.9697875976562	-554.797119140625	1336.794799804688	0.398048460483551	-591.3986206054688	1268.02197265625	45.83891296386719	-586.6768798828125	1000.477600097656	94.91770935058594	-622.4456787109375	980.33056640625	42.62606048583984	-462.9848937988281	810.3568115234375	106.6763916015625	-548.7772827148438	780.6322021484375	121.5809936523438	-579.6985473632812	946.185791015625	104.0165710449219	-449.2066955566406	650.5130004882812	116.1144027709961	-450.7637329101562	718.2681274414062	138.1016082763672	-521.6967163085938	709.7449951171875	133.6050567626953	-541.5372314453125	1498.918334960938	-69.85495758056641	-371.040283203125	1561.44873046875	-154.382080078125	-423.5857543945312	1562.77392578125	-38.23455810546875	-489.2444763183594	1491.834228515625	-219.8638305664062	-361.7417907714844	863.4053955078125	-287.5446472167969	-590.2037963867188	841.1612548828125	14.59983539581299	-468.2805786132812	884.295654296875	24.53134918212891	-334.5550842285156	902.6815795898438	-177.2723388671875	-239.3865509033203	480.7153625488281	-154.68359375	-273.1281433105469	624.5762939453125	-212.7396697998047	-213.0700988769531	47.09343719482422	-116.1706237792969	-219.1450347900391	328.7825317382812	-145.7803649902344	-71.88703155517578	87.13039398193359	18.24218368530273	-148.6085357666016	70.07869720458984	19.51806831359863	-113.8385543823242	61.26937866210938	-78.93215179443359	-278.8688354492188	40.56601333618164	-78.83222198486328	-611.7852783203125	462.4205322265625	-61.74048614501953	-577.4940185546875	710.3757934570312	20.76402282714844	-758.539306640625	66.73538970947266	-207.8473968505859	-634.955810546875	321.2926025390625	-104.790771484375	-570.582763671875	41.9313850402832	-139.0276336669922	-604.7238159179688	49.82947540283203	-205.3878173828125	-673.2271728515625	47.90476226806641	-135.9366912841797	-777.9259643554688	72.25231170654297	-276.9732360839844	
242	2.41	-590.3233032226562	936.4862060546875	-143.4085998535156	-518.7928466796875	928.937744140625	-244.6193084716797	-555.5601806640625	1007.60302734375	-186.7224578857422	-365.2236938476562	1169.188232421875	-80.49781799316406	-570.2509765625	1113.207397460938	-181.7037658691406	-535.59619140625	1342.958984375	-154.2130737304688	-396.2886962890625	1264.491455078125	-94.22473907470703	-613.0374755859375	1218.405029296875	-97.84300231933594	-523.1954956054688	1290.587036132812	-244.4812469482422	-407.1356506347656	1336.453125	-273.1119079589844	-397.7663269042969	1212.22314453125	-337.9738159179688	-383.6819152832031	1003.470947265625	-366.71728515625	-476.6366271972656	994.999755859375	-331.9485168457031	-323.3645324707031	810.1951904296875	-306.7073364257812	-381.1360473632812	779.7725830078125	-374.1954650878906	-370.2334289550781	917.5475463867188	-365.5638732910156	-331.9035339355469	652.8101806640625	-301.5683288574219	-363.3377990722656	724.24658203125	-361.6510925292969	-311.77197265625	731.7562255859375	-323.6593322753906	-546.560546875	1336.314331054688	3.737087965011597	-583.2576293945312	1267.550537109375	49.09439468383789	-579.054931640625	999.9454345703125	97.87525177001953	-614.6392822265625	979.9467163085938	45.39835357666016	-455.7766723632812	809.5557250976562	109.6041259765625	-541.6098022460938	779.9580688476562	124.4136810302734	-572.2177124023438	945.6268920898438	106.9416732788086	-442.2550048828125	649.6515502929688	118.6001510620117	-443.7576904296875	717.3358154296875	140.7884979248047	-514.6536254882812	708.9570922851562	136.2382507324219	-533.1943359375	1498.427001953125	-66.3704833984375	-362.7704162597656	1561.175170898438	-150.8116607666016	-415.2956237792969	1562.427856445312	-34.71588897705078	-480.8415832519531	1491.438598632812	-216.381591796875	-351.2579650878906	863.3907470703125	-283.2578430175781	-581.3008422851562	840.49072265625	17.63785552978516	-459.4688720703125	883.47314453125	28.53172492980957	-324.8033142089844	902.3201293945312	-172.7249145507812	-231.6915283203125	479.8796997070312	-149.8045196533203	-264.1968994140625	624.0420532226562	-207.5929412841797	-211.62744140625	46.38125610351562	-114.7833099365234	-213.1744995117188	327.3751220703125	-141.6879272460938	-70.22465515136719	81.55644226074219	21.02844429016113	-147.4287719726562	65.92097473144531	21.67385292053223	-112.4548950195312	58.26533508300781	-76.64006805419922	-277.6546936035156	40.30544662475586	-77.63433074951172	-603.8074951171875	462.2622680664062	-58.99725341796875	-569.0235595703125	709.7860107421875	23.64595222473145	-757.5377807617188	69.66248321533203	-207.4226531982422	-629.0865478515625	321.5997619628906	-102.4130783081055	-570.3888549804688	41.92684936523438	-138.7587738037109	-604.2680053710938	50.4868278503418	-205.0265045166016	-672.7741088867188	48.45653533935547	-135.5490112304688	-776.7144775390625	76.72730255126953	-276.51513671875	
